# xmcd
#
# Track frame offsets:
#	150
#	14661
#	27960
#	41426
#	55465
#	70463
#	83320
#	96850
#	109525
#	125577
#	140116
#	155342
#	170967
#	185192
#	196377
#	211286
#
# Disc length: 3028 seconds
#
# Revision: 0
# Processed by: cddbd v1.5.2PL0 Copyright (c) Steve Scherf et al.
# Submitted via: EasyCDDAExtractor 12.1.0.1
#
DISCID=eb0bd210
DTITLE=Mike Brant - Best of 3 CD - CD 2
DYEAR=2009
DGENRE=Chanson francaise
TTITLE0=Qui a tort
TTITLE1=Je vis la vie que j'ai choisie
TTITLE2=L'amour c'est ca, l'amour c'est toi
TTITLE3=Eine liebe und zwei freunde (Attendez)
TTITLE4=Rien qu'une larme
TTITLE5=C'est une belle fete
TTITLE6=Sans amis
TTITLE7=Elle a garde ses yeux d'enfants
TTITLE8=Tout donne, tout repris
TTITLE9=La musique au fond du coeur
TTITLE10=Viens ce soir
TTITLE11=Toi mon enfant
TTITLE12=Au revoir (On se retrouvera par hasard)
TTITLE13=Das ist mein lied
TTITLE14=C'est comme ca que je t'aime
TTITLE15=Serre les poings et bats toi
EXTD=
EXTT0=
EXTT1=
EXTT2=
EXTT3=
EXTT4=
EXTT5=
EXTT6=
EXTT7=
EXTT8=
EXTT9=
EXTT10=
EXTT11=
EXTT12=
EXTT13=
EXTT14=
EXTT15=
PLAYORDER=
